<svg width="32" height="32" viewBox="0 0 32 32" fill="none" xmlns="http://www.w3.org/2000/svg">
  <!-- Background circle with Embrapa green -->
  <circle cx="16" cy="16" r="16" fill="#00C851"/>
  
  <!-- Stylized plant/leaf design -->
  <path d="M8 20c0-4 2-6 4-8 2 2 4 4 4 8-2 0-4-2-4-4 0 2-2 4-4 4z" fill="white"/>
  <path d="M16 12c2-2 4-2 6 0 0 2-2 4-4 4-2 0-2-2-2-4z" fill="white"/>
  <path d="M12 24c0-2 1-3 2-4 1 1 2 2 2 4-1 0-2-1-2-2 0 1-1 2-2 2z" fill="white"/>
  
  <!-- Small dots representing seeds/agriculture -->
  <circle cx="20" cy="20" r="1" fill="white"/>
  <circle cx="22" cy="18" r="1" fill="white"/>
  <circle cx="18" cy="22" r="1" fill="white"/>
</svg>
